<svg xmlns="http://www.w3.org/2000/svg" viewBox="0 0 32 32"><defs><style>.cls-1{fill:#ffe082}.cls-2{fill:#ffb74d}.cls-3{fill:#039be5}</style></defs><g id="crowdsourcing"><path class="cls-1" d="M16 21c-3.69 0-6.1 5-4.5 9.35a1 1 0 0 0 .94.65h7.12a1 1 0 0 0 .94-.65C22.12 26 19.65 21 16 21z"/><path class="cls-2" d="M5.5 21.59c-3.42 0-5.72 4.77-4 8.81a1 1 0 0 0 .92.6h6.14a1 1 0 0 0 .92-.6c1.76-4.08-.6-8.81-3.98-8.81zM26.43 21.59c-3.42 0-5.73 4.77-4 8.81a1 1 0 0 0 .92.6h6.12a1 1 0 0 0 .92-.6c1.78-4.08-.58-8.81-3.96-8.81z"/><circle class="cls-3" cx="16" cy="18" r="4"/><circle class="cls-3" cx="6" cy="19.5" r="3.5"/><path class="cls-1" d="M22.5 6.59c-2.52 0-4.57 2.65-4.57 5.91a1 1 0 0 0 1 1 14.22 14.22 0 0 1 6.52 1.37 1.16 1.16 0 0 0 1.17-.06c1.38-.94.38-8.22-4.12-8.22z"/><circle class="cls-2" cx="22" cy="4.5" r="3.5"/><path class="cls-1" d="M9.5 6.59c-4.49 0-5.41 7.32-4.12 8.22a1.16 1.16 0 0 0 1.17.06 14.22 14.22 0 0 1 6.52-1.37 1 1 0 0 0 1-1c0-3.26-2.07-5.91-4.57-5.91z"/><circle class="cls-2" cx="10" cy="4.5" r="3.5"/><circle class="cls-3" cx="26.5" cy="19.5" r="3.5"/></g></svg>